# xmcd
#
# Track frame offsets:
#	150
#	23883
#	47671
#	62701
#	75516
#	93883
#	105442
#	122046
#	132256
#	144331
#	167916
#	182387
#	188737
#
# Disc length: 2616 seconds
#
# Revision: 1
# Processed by: cddbd v1.4PL0 Copyright (c) Steve Scherf et al.
# Submitted via: audiograbber 1.81.03
#
DISCID=9f0a360d
DTITLE=Steve Arvey - It's A Fine Line
DYEAR=1900
DGENRE=Blues
TTITLE0=It's A Fine Line
TTITLE1=Blues Messiah
TTITLE2="44"
TTITLE3=Peshtigo River Blues
TTITLE4=Coming Back To You
TTITLE5=Bye Bye
TTITLE6=Things That I Used To Do
TTITLE7=Big Fat Mama
TTITLE8=Canned Heat
TTITLE9=The Doldrums
TTITLE10=Mississippi Heavey Water Blues
TTITLE11=Cherokee
TTITLE12=Peace River
EXTD=
EXTT0=
EXTT1=
EXTT2=
EXTT3=
EXTT4=
EXTT5=
EXTT6=
EXTT7=
EXTT8=
EXTT9=
EXTT10=
EXTT11=
EXTT12=
PLAYORDER=
